<svg xmlns="http://www.w3.org/2000/svg" viewBox="0 0 1000 150" width="1000" height="150" role="img" aria-label="Commit trace: 71 contributions in the last 84 days.">
  <g font-family="ui-monospace,SFMono-Regular,Menlo,Consolas,monospace">
    <text x="24" y="24" font-size="9.5" letter-spacing="2" fill="#9198A1">ACTIVITY TRACE — LAST 12 WEEKS</text>
    <line x1="24" y1="112" x2="916" y2="112" stroke="#30363D" stroke-width="1"/>
    <rect x="24.0" y="99.0" width="3.2" height="13.0" fill="#E6EDF3"/><rect x="34.7" y="99.0" width="3.2" height="13.0" fill="#E6EDF3"/><rect x="131.5" y="86.0" width="3.2" height="26.0" fill="#E6EDF3"/><rect x="142.2" y="34.0" width="3.2" height="78.0" fill="#E6EDF3"/><rect x="153.0" y="34.0" width="3.2" height="78.0" fill="#E6EDF3"/><rect x="163.7" y="86.0" width="3.2" height="26.0" fill="#E6EDF3"/><rect x="174.5" y="86.0" width="3.2" height="26.0" fill="#E6EDF3"/><rect x="185.2" y="86.0" width="3.2" height="26.0" fill="#E6EDF3"/><rect x="196.0" y="60.0" width="3.2" height="52.0" fill="#E6EDF3"/><rect x="206.7" y="99.0" width="3.2" height="13.0" fill="#E6EDF3"/><rect x="217.4" y="73.0" width="3.2" height="39.0" fill="#E6EDF3"/><rect x="228.2" y="47.0" width="3.2" height="65.0" fill="#E6EDF3"/><rect x="238.9" y="99.0" width="3.2" height="13.0" fill="#E6EDF3"/><rect x="281.9" y="86.0" width="3.2" height="26.0" fill="#E6EDF3"/><rect x="292.7" y="99.0" width="3.2" height="13.0" fill="#E6EDF3"/><rect x="303.4" y="99.0" width="3.2" height="13.0" fill="#E6EDF3"/><rect x="421.6" y="99.0" width="3.2" height="13.0" fill="#E6EDF3"/><rect x="443.1" y="99.0" width="3.2" height="13.0" fill="#E6EDF3"/><rect x="518.4" y="86.0" width="3.2" height="26.0" fill="#E6EDF3"/><rect x="625.8" y="34.0" width="3.2" height="78.0" fill="#E6EDF3"/><rect x="636.6" y="47.0" width="3.2" height="65.0" fill="#E6EDF3"/><rect x="647.3" y="73.0" width="3.2" height="39.0" fill="#E6EDF3"/><rect x="679.6" y="60.0" width="3.2" height="52.0" fill="#E6EDF3"/><rect x="733.3" y="99.0" width="3.2" height="13.0" fill="#E6EDF3"/><rect x="744.0" y="47.0" width="3.2" height="65.0" fill="#E6EDF3"/><rect x="754.8" y="99.0" width="3.2" height="13.0" fill="#E6EDF3"/><rect x="787.0" y="86.0" width="3.2" height="26.0" fill="#E6EDF3"/>
    <text x="142.2" y="26.0" font-size="9.5" fill="#9198A1" text-anchor="middle">6</text>
    <text x="88.5" y="132" font-size="9.5" fill="#9198A1" letter-spacing="1">JUN</text><text x="410.9" y="132" font-size="9.5" fill="#9198A1" letter-spacing="1">JUL</text><text x="744.0" y="132" font-size="9.5" fill="#9198A1" letter-spacing="1">AUG</text>
    
    <text x="924" y="110" font-size="10.5" fill="#E6EDF3">71</text>
    <text x="924" y="124" font-size="9" fill="#9198A1">commits</text>
    <rect x="924" y="30" width="7" height="7" fill="#E2794F"/>
    <text x="936" y="37" font-size="9" fill="#9198A1">this week</text>
  </g>
</svg>
