<svg xmlns="http://www.w3.org/2000/svg" viewBox="0 0 1000 150" width="1000" height="150" role="img" aria-label="Commit trace: 180 contributions in the last 84 days.">
  <g font-family="ui-monospace,SFMono-Regular,Menlo,Consolas,monospace">
    <text x="24" y="24" font-size="9.5" letter-spacing="2" fill="#59636E">ACTIVITY TRACE — LAST 12 WEEKS</text>
    <line x1="24" y1="112" x2="916" y2="112" stroke="#D8DEE4" stroke-width="1"/>
    <rect x="34.7" y="97.4" width="3.2" height="14.6" fill="#1F2328"/><rect x="45.5" y="82.8" width="3.2" height="29.2" fill="#1F2328"/><rect x="56.2" y="53.5" width="3.2" height="58.5" fill="#1F2328"/><rect x="67.0" y="97.4" width="3.2" height="14.6" fill="#1F2328"/><rect x="77.7" y="97.4" width="3.2" height="14.6" fill="#1F2328"/><rect x="88.5" y="102.2" width="3.2" height="9.8" fill="#1F2328"/><rect x="99.2" y="87.6" width="3.2" height="24.4" fill="#1F2328"/><rect x="110.0" y="107.1" width="3.2" height="4.9" fill="#1F2328"/><rect x="120.7" y="97.4" width="3.2" height="14.6" fill="#1F2328"/><rect x="131.5" y="68.1" width="3.2" height="43.9" fill="#1F2328"/><rect x="142.2" y="107.1" width="3.2" height="4.9" fill="#1F2328"/><rect x="185.2" y="102.2" width="3.2" height="9.8" fill="#1F2328"/><rect x="196.0" y="107.1" width="3.2" height="4.9" fill="#1F2328"/><rect x="206.7" y="107.1" width="3.2" height="4.9" fill="#1F2328"/><rect x="324.9" y="107.1" width="3.2" height="4.9" fill="#1F2328"/><rect x="346.4" y="107.1" width="3.2" height="4.9" fill="#1F2328"/><rect x="378.7" y="34.0" width="3.2" height="78.0" fill="#1F2328"/><rect x="421.6" y="102.2" width="3.2" height="9.8" fill="#1F2328"/><rect x="529.1" y="82.8" width="3.2" height="29.2" fill="#1F2328"/><rect x="539.9" y="87.6" width="3.2" height="24.4" fill="#1F2328"/><rect x="550.6" y="92.5" width="3.2" height="19.5" fill="#1F2328"/><rect x="561.3" y="102.2" width="3.2" height="9.8" fill="#1F2328"/><rect x="572.1" y="107.1" width="3.2" height="4.9" fill="#1F2328"/><rect x="582.8" y="63.2" width="3.2" height="48.8" fill="#1F2328"/><rect x="593.6" y="97.4" width="3.2" height="14.6" fill="#1F2328"/><rect x="604.3" y="97.4" width="3.2" height="14.6" fill="#1F2328"/><rect x="615.1" y="97.4" width="3.2" height="14.6" fill="#1F2328"/><rect x="625.8" y="102.2" width="3.2" height="9.8" fill="#1F2328"/><rect x="636.6" y="102.2" width="3.2" height="9.8" fill="#1F2328"/><rect x="647.3" y="82.8" width="3.2" height="29.2" fill="#1F2328"/><rect x="658.1" y="102.2" width="3.2" height="9.8" fill="#1F2328"/><rect x="668.8" y="102.2" width="3.2" height="9.8" fill="#1F2328"/><rect x="679.6" y="107.1" width="3.2" height="4.9" fill="#1F2328"/><rect x="690.3" y="102.2" width="3.2" height="9.8" fill="#1F2328"/><rect x="733.3" y="82.8" width="3.2" height="29.2" fill="#1F2328"/><rect x="744.0" y="97.4" width="3.2" height="14.6" fill="#1F2328"/><rect x="754.8" y="58.4" width="3.2" height="53.6" fill="#1F2328"/><rect x="765.5" y="77.9" width="3.2" height="34.1" fill="#1F2328"/><rect x="776.3" y="107.1" width="3.2" height="4.9" fill="#1F2328"/><rect x="819.3" y="97.4" width="3.2" height="14.6" fill="#1F2328"/><rect x="830.0" y="102.2" width="3.2" height="9.8" fill="#1F2328"/><rect x="840.8" y="102.2" width="3.2" height="9.8" fill="#1F2328"/><rect x="851.5" y="102.2" width="3.2" height="9.8" fill="#C15F3C"/><rect x="862.3" y="63.2" width="3.2" height="48.8" fill="#C15F3C"/><rect x="873.0" y="102.2" width="3.2" height="9.8" fill="#C15F3C"/><rect x="883.8" y="107.1" width="3.2" height="4.9" fill="#C15F3C"/><rect x="905.3" y="102.2" width="3.2" height="9.8" fill="#C15F3C"/><rect x="916.0" y="102.2" width="3.2" height="9.8" fill="#C15F3C"/>
    <text x="378.7" y="26.0" font-size="9.5" fill="#59636E" text-anchor="middle">16</text>
    <text x="24.0" y="132" font-size="9.5" fill="#59636E" letter-spacing="1">JUN</text><text x="314.2" y="132" font-size="9.5" fill="#59636E" letter-spacing="1">JUL</text><text x="647.3" y="132" font-size="9.5" fill="#59636E" letter-spacing="1">AUG</text>
    
    <text x="924" y="110" font-size="10.5" fill="#1F2328">180</text>
    <text x="924" y="124" font-size="9" fill="#59636E">commits</text>
    <rect x="924" y="30" width="7" height="7" fill="#C15F3C"/>
    <text x="936" y="37" font-size="9" fill="#59636E">this week</text>
  </g>
</svg>
